<svg width="44" height="44" viewBox="0 0 44 44" fill="none" xmlns="http://www.w3.org/2000/svg">
<g filter="url(#filter0_d_1:97)">
<circle cx="22" cy="18" r="17.5" fill="#E21F27" stroke="white"/>
</g>
<path d="M28.7122 18.2933C28.3212 17.9023 27.6892 17.9023 27.2982 18.2933L26.1256 19.4659C25.866 19.7255 25.4836 19.8256 25.1382 19.7013C24.3851 19.4301 23.3947 18.9757 22.7122 18.2933C22.0297 17.6108 21.5753 16.6204 21.3042 15.8673C21.1798 15.5218 21.28 15.1395 21.5396 14.8799L22.7122 13.7072C23.1032 13.3162 23.1032 12.6843 22.7122 12.2933L18.7122 8.29325C18.3212 7.90225 17.6892 7.90225 17.2982 8.29325L14.5862 11.0053C14.2062 11.3853 13.9922 11.9072 14.0002 12.4402C14.0232 13.8642 14.4002 18.8103 18.2982 22.7083C22.1962 26.6063 27.1422 26.9823 28.5672 27.0063C28.5722 27.0063 28.5902 27.0063 28.5952 27.0063C29.1232 27.0063 29.6222 26.7982 30.0002 26.4202L32.7122 23.7083C33.1032 23.3173 33.1032 22.6853 32.7122 22.2943L28.7122 18.2933ZM28.8851 24.7055C28.6934 24.8971 28.4323 25.0047 28.1618 24.9891C26.5509 24.8958 22.7552 24.3371 19.7122 21.2933C16.663 18.2441 16.1085 14.4407 16.0163 12.8427C16.0007 12.5722 16.1084 12.3111 16.2999 12.1196L17.2981 11.1214C17.6886 10.7308 18.3218 10.7308 18.7123 11.1214L19.8841 12.2931C20.2746 12.6837 20.2746 13.3168 19.8841 13.7074L19.2982 14.2933C19.0592 14.5313 18.9572 14.8752 19.0262 15.2052C19.0502 15.3202 19.6372 18.0472 21.2972 19.7072C22.9572 21.3672 25.6842 21.9542 25.7992 21.9782C26.1322 22.0492 26.4732 21.9462 26.7112 21.7072L27.2981 21.1208C27.6887 20.7305 28.3216 20.7307 28.7121 21.1211L29.8839 22.293C30.2745 22.6836 30.2744 23.3169 29.8838 23.7074L28.8851 24.7055Z" fill="white"/>
<defs>
<filter id="filter0_d_1:97" x="0" y="0" width="44" height="44" filterUnits="userSpaceOnUse" color-interpolation-filters="sRGB">
<feFlood flood-opacity="0" result="BackgroundImageFix"/>
<feColorMatrix in="SourceAlpha" type="matrix" values="0 0 0 0 0 0 0 0 0 0 0 0 0 0 0 0 0 0 127 0" result="hardAlpha"/>
<feOffset dy="4"/>
<feGaussianBlur stdDeviation="2"/>
<feComposite in2="hardAlpha" operator="out"/>
<feColorMatrix type="matrix" values="0 0 0 0 0 0 0 0 0 0 0 0 0 0 0 0 0 0 0.25 0"/>
<feBlend mode="normal" in2="BackgroundImageFix" result="effect1_dropShadow_1:97"/>
<feBlend mode="normal" in="SourceGraphic" in2="effect1_dropShadow_1:97" result="shape"/>
</filter>
</defs>
</svg>
